<svg xmlns="http://www.w3.org/2000/svg" id="svg40" version="1.1" viewBox="273.6 220.79999999999998 604.8 595.2" style="max-height: 500px" width="604.8" height="595.2">
  <defs id="defs40"/>
  
  <path style="stroke-width:1.07228" id="path1" fill="#274191" d="m 569.01657,228.48446 c 20.24579,-0.43351 40.59524,2.04642 60.38714,6.00421 2.72626,0.52553 5.45551,0.9833 8.19778,1.42154 13.87322,2.30318 26.52107,6.7207 39.56664,11.80568 2.3425,0.90124 4.68928,1.75912 7.0628,2.57832 7.71127,2.69365 14.49486,6.18633 21.48898,10.29261 3.63514,2.01301 7.33111,3.55186 11.17071,5.15459 1.92975,1.09897 3.83185,2.24574 5.69987,3.4419 4.55901,2.90388 4.55901,2.90388 9.16897,5.72962 8.1536,4.90428 15.61145,10.4803 23.13023,16.24561 1.80945,1.3459 3.61892,2.69178 5.42844,4.03761 3.52657,2.67697 6.6496,5.54583 9.77119,8.67095 1.21461,1.00076 2.43659,1.99302 3.6642,2.97857 4.32365,3.56939 7.88677,7.6375 11.53543,11.84808 1.26384,1.41445 2.53047,2.82653 3.7999,4.2362 0.63119,0.7058 1.26237,1.41158 1.91268,2.13877 1.21538,1.35073 2.43903,2.69447 3.67269,4.02934 4.01514,4.37524 7.77119,8.90899 11.44636,13.55663 0.67767,0.85533 0.67767,0.85533 1.36904,1.72793 8.19859,10.45988 8.19859,10.45988 8.19859,13.49587 0.71654,0 1.4331,0 2.17138,0 0.91001,1.71831 1.81353,3.43987 2.71421,5.16285 0.50383,0.95835 1.00766,1.91671 1.52675,2.90411 1.18747,2.52352 1.18747,2.52352 1.18747,4.64161 0.71655,0 1.43311,0 2.17137,0 4.74805,9.14948 9.40659,18.33482 13.91038,27.6014 0.40437,0.83046 0.80875,1.66092 1.22538,2.51653 1.11865,2.31113 2.22194,4.62864 3.32094,6.94871 0.58639,1.22183 1.17279,2.44366 1.77696,3.70252 1.44693,3.62765 2.29501,7.05377 3.09326,10.85006 0.70381,3.01608 1.71803,5.86 2.79003,8.7674 19.72129,53.51094 16.9352,120.75979 -2.61563,173.79307 -1.04672,2.9644 -1.87672,5.98399 -2.73754,9.00396 -1.91415,6.1953 -4.69279,11.74157 -7.73871,17.46264 -2.27748,4.28016 -4.29237,8.5565 -6.10381,13.05115 -1.97057,4.7607 -4.32462,8.7642 -7.36231,12.94437 -1.98027,2.83596 -3.67478,5.7732 -5.39451,8.7661 -3.12036,5.30469 -6.66513,9.92545 -10.67877,14.61153 -1.75689,2.17029 -3.12422,4.26774 -4.45301,6.70179 -1.83209,3.11095 -1.83209,3.11095 -5.08916,4.16999 -1.15432,1.95893 -1.15432,1.95893 -2.17138,4.23619 -3.52755,5.07571 -7.4434,9.4859 -11.94256,13.76761 -1.13505,1.32045 -2.26554,2.64463 -3.39277,3.97143 -4.01578,4.55572 -8.63255,8.15492 -13.48628,11.83153 -2.67564,2.0358 -2.67564,2.0358 -4.30882,4.40167 -2.01128,2.54018 -4.19779,3.61362 -7.04001,5.2125 -1.96885,1.53813 -3.91322,3.10642 -5.83557,4.69952 -3.34903,2.71725 -6.54514,5.2601 -10.38189,7.28094 -3.29172,1.55273 -3.29172,1.55273 -5.20367,3.73562 -3.14325,2.91837 -6.68282,4.79411 -10.47094,6.78867 -1.57108,0.84027 -3.14165,1.68147 -4.71172,2.5235 -0.78495,0.41947 -1.56991,0.83891 -2.37866,1.27107 -2.07157,1.12604 -4.11255,2.28759 -6.14568,3.47811 -8.95287,5.20144 -18.02935,9.13747 -27.71526,12.83422 -2.74042,1.07187 -5.41682,2.27337 -8.1082,3.45689 -14.73551,5.9695 -30.59363,9.69775 -46.14173,13.03952 -0.95281,0.20614 -1.90561,0.41228 -2.8873,0.62467 -2.98825,0.61578 -5.98101,1.16697 -8.98741,1.69199 -1.10457,0.19872 -2.20913,0.39744 -3.34718,0.60218 -12.60533,1.96286 -25.22652,1.87323 -37.96249,1.85022 -3.85168,-0.003 -7.70243,0.0215 -11.55399,0.0484 -20.08095,0.0558 -39.24686,-1.67913 -58.69075,-6.73694 -1.05803,-0.26212 -2.11607,-0.52423 -3.20617,-0.79429 -5.64523,-1.42108 -11.18302,-3.01499 -16.68661,-4.89265 -2.37331,-0.79284 -2.37331,-0.79284 -6.02802,-1.52782 -7.28063,-1.72675 -14.15559,-4.76414 -21.03519,-7.6119 -1.30523,-0.53984 -1.30523,-0.53984 -2.63682,-1.0906 -10.43666,-4.35608 -20.43375,-8.86433 -29.97622,-14.89438 -3.31443,-2.08149 -6.70142,-3.97181 -10.13592,-5.85786 -4.43094,-2.49337 -8.20976,-5.12502 -11.96801,-8.49306 -2.86009,-2.36121 -6.0365,-3.96255 -9.3386,-5.67169 0,-0.69897 0,-1.39795 0,-2.1181 -0.62,-0.29215 -1.23999,-0.5843 -1.87876,-0.88529 -7.33001,-3.66738 -12.87699,-7.95611 -18.09197,-14.16062 -1.78487,-2.1192 -1.78487,-2.1192 -4.86439,-3.81836 -4.5054,-3.0764 -7.45722,-6.94933 -10.83142,-11.15309 -2.10005,-2.5327 -4.31334,-4.75456 -6.67529,-7.04928 -1.26865,-1.5476 -2.51277,-3.11462 -3.73205,-4.69952 -2.16409,-2.76504 -4.22552,-5.17277 -6.78555,-7.6119 -2.45611,-2.46061 -3.9584,-4.88557 -5.6108,-7.89734 -1.38304,-2.2608 -2.98147,-4.17424 -4.70324,-6.20123 -4.66028,-5.68975 -8.07853,-11.97 -11.65417,-18.33475 -2.01964,-3.59228 -4.17618,-7.06285 -6.52261,-10.46222 -1.35649,-2.31321 -2.3871,-4.72097 -3.44049,-7.17676 -1.11754,-2.53309 -2.31301,-5.02329 -3.51893,-7.51752 -4.58071,-9.52632 -9.00232,-18.77098 -11.65419,-28.99554 -0.78957,-3.00932 -1.64957,-5.95296 -2.58698,-8.91917 -0.28726,-0.90903 -0.5745,-1.81808 -0.87046,-2.75465 -0.55709,-1.75407 -1.11729,-3.50718 -1.68155,-5.25905 -4.22057,-13.45903 -6.33299,-26.86647 -7.4694,-40.84311 -0.0679,-0.81365 -0.1358,-1.62729 -0.20575,-2.4656 -3.43538,-41.63907 -0.123,-81.94603 14.31995,-121.45427 0.79651,-2.31957 1.44894,-4.65815 2.11174,-7.01722 2.05356,-6.75319 5.09124,-13.06161 8.15405,-19.42122 0.99004,-2.06178 1.96042,-4.13163 2.92972,-6.20275 3.69814,-7.7896 7.74971,-14.85414 12.85993,-21.86819 1.7644,-2.6318 2.85479,-5.10562 4.00428,-8.02921 1.65556,-2.68766 3.54918,-5.20146 5.42843,-7.74428 0.48984,-0.68327 0.97967,-1.36655 1.48435,-2.07052 1.25616,-1.71294 2.59422,-3.36815 3.94409,-5.01186 0.71656,0 1.43311,0 2.17138,0 0.105,-0.59931 0.20993,-1.19862 0.31807,-1.81609 0.9405,-2.96516 2.39427,-4.82047 4.36396,-7.25199 0.64518,-0.80955 1.29036,-1.61911 1.95508,-2.45319 2.04839,-2.24634 2.04839,-2.24634 4.26642,-3.79767 2.5912,-1.98275 3.70717,-4.17185 5.38179,-6.92105 2.18834,-2.07258 2.18834,-2.07258 4.61417,-4.03761 4.088,-3.4245 7.57625,-7.03624 11.0562,-11.03726 2.15815,-2.37292 4.4486,-4.31313 7.12907,-6.10606 0.71655,0 1.4331,0 2.17137,0 0.2813,-0.62935 0.56261,-1.2587 0.85244,-1.90711 1.41452,-2.49787 2.81789,-3.88252 5.05099,-5.70479 0.97196,-0.80887 0.97196,-0.80887 1.96357,-1.63407 1.90419,-1.34454 1.90419,-1.34454 5.16126,-2.40359 1.17559,-1.14675 1.17559,-1.14675 2.37494,-2.31667 6.26119,-6.10755 13.18944,-10.20782 20.98855,-14.2268 2.99323,-1.62312 5.51939,-3.53157 8.12145,-5.69652 2.90866,-1.86664 5.68922,-3.2846 8.90179,-4.60851 3.44902,-1.42578 6.76263,-3.02915 10.08502,-4.71399 8.55844,-4.3248 17.18578,-7.91711 26.28658,-10.99796 2.71046,-0.9341 5.39654,-1.92346 8.08646,-2.91238 28.84781,-10.30636 59.20152,-13.67381 89.7304,-15.08315 z"/>
  <path style="stroke-width:1.07228" id="path2" fill="#fdfdfe" d="m 571.34061,328.82089 c 0.73484,-0.003 1.46967,-0.006 2.22678,-0.009 16.63078,-0.019 32.60857,2.52727 48.8684,5.76839 0,0.69897 0,1.39794 0,2.11809 0.73895,0.067 1.47789,0.1338 2.23923,0.20271 8.96492,1.10475 16.29621,3.98862 24.39405,7.6781 2.82828,1.23962 5.1383,2.05551 8.10873,2.70967 0,0.69897 0,1.39794 0,2.11809 0.58728,0.15409 1.17455,0.30819 1.77961,0.46695 6.9329,2.0104 12.30231,5.12821 18.1699,9.19685 0.90348,0.6162 1.80695,1.23242 2.73781,1.86729 6.8214,4.69535 13.38321,9.56177 19.6545,14.94508 1.06643,0.91194 2.13287,1.82388 3.23162,2.76345 13.44921,11.67375 26.16712,24.77117 34.57236,40.43408 1.43071,2.61559 3.00723,5.11555 4.6057,7.63673 4.99501,8.09173 8.31906,16.67764 11.71355,25.504 1.14494,2.99029 1.14494,2.99029 2.43431,5.3366 1.0833,2.19086 1.51324,4.09581 1.93388,6.49081 0.76918,4.06114 1.72236,8.03178 2.81336,12.02234 7.49101,27.69784 7.99883,59.19269 -0.80685,86.70819 -0.74741,2.54485 -1.24106,5.02534 -1.69267,7.63335 -1.14576,5.72812 -3.2368,10.77984 -5.67442,16.08842 -0.78449,1.73908 -1.56635,3.47929 -2.34525,5.22077 -0.34438,0.75341 -0.68874,1.50681 -1.04354,2.28305 -0.86738,2.11433 -1.46251,4.17636 -1.97179,6.39617 -0.71655,0 -1.43311,0 -2.17137,0 -0.14696,0.56518 -0.2939,1.13036 -0.4453,1.71268 -1.85644,6.26757 -4.74583,10.91611 -8.75761,16.11737 -1.83192,2.3051 -1.83192,2.3051 -2.73966,5.46898 -0.71656,0 -1.43311,0 -2.17138,0 -0.42195,1.16108 -0.42195,1.16108 -0.85243,2.34562 -6.36399,14.23212 -23.54713,29.58923 -36.06094,38.95722 -0.71656,0 -1.43312,0 -2.17138,0 0,0.69897 0,1.39794 0,2.11809 -3.5634,2.66803 -7.3836,4.96306 -11.17177,7.31559 -1.72242,1.07325 -3.43133,2.16702 -5.139,3.26246 -14.46849,9.05222 -30.25865,16.18634 -46.65912,21.19336 -0.74822,0.22917 -1.49644,0.45835 -2.26733,0.69448 -2.44996,0.73895 -4.90672,1.45003 -7.36815,2.1517 -1.09175,0.32202 -1.09175,0.32202 -2.20556,0.65053 -13.57626,3.71421 -27.65294,4.27108 -41.66354,4.19275 -2.40758,-0.0113 -4.81428,-10e-6 -7.22184,0.0135 -33.46198,0.0374 -69.56558,-7.99171 -96.6983,-27.8248 -1.47481,-0.78331 -2.96562,-1.53951 -4.47846,-2.25048 -6.66466,-3.51173 -12.14973,-8.46544 -17.80571,-13.32237 -1.36602,-1.17058 -2.74592,-2.32574 -4.12858,-3.47759 -17.80359,-14.87142 -31.63747,-33.11408 -43.07126,-52.96506 -0.564,-0.89282 -1.12801,-1.78564 -1.70911,-2.70553 -1.45955,-2.4418 -2.55032,-4.78579 -3.58362,-7.4216 -1.11707,-2.83559 -2.24303,-5.62497 -3.56241,-8.37724 -3.45262,-7.32948 -5.60364,-14.79407 -7.63374,-22.59989 -0.407,-1.54324 -0.407,-1.54324 -0.82222,-3.11767 -3.62076,-14.41145 -4.84749,-28.70354 -4.80979,-43.48039 -1.3e-4,-0.79849 -2.6e-4,-1.59698 -3.9e-4,-2.41967 0.0349,-15.06296 1.53714,-29.61959 4.75028,-44.37697 0.15657,-0.73294 0.31314,-1.46586 0.47445,-2.22101 2.7965,-12.43578 8.55956,-24.2271 13.63949,-35.90468 0.71655,0 1.4331,0 2.17137,0 0.33588,-1.26689 0.67177,-2.53376 1.01783,-3.83905 2.58868,-7.57546 7.40549,-13.99591 12.01042,-20.51903 0.41776,-0.59522 0.83551,-1.19044 1.26593,-1.80369 4.98722,-7.05779 4.98722,-7.05779 7.41958,-9.84583 0.71654,0 1.4331,0 2.17138,0 0.40305,-0.88462 0.40305,-0.88462 0.81425,-1.78714 1.60601,-2.89819 3.45757,-5.28359 5.69987,-7.74428 0.71655,0 1.43311,0 2.17137,0 0.24632,-0.58976 0.49264,-1.17952 0.74641,-1.78714 12.48416,-21.45616 46.34057,-36.55881 68.80546,-45.47282 1.03635,-0.41775 2.07269,-0.8355 3.14044,-1.2659 8.26913,-3.29553 16.35862,-5.6227 25.15529,-7.0741 0.72776,-0.12423 1.45551,-0.24847 2.20531,-0.37647 1.57249,-0.26515 3.14626,-0.52319 4.72099,-0.77541 1.96471,-0.3167 3.92676,-0.64919 5.887,-0.9913 9.07885,-1.50478 17.95034,-2.009 27.15358,-2.02682 z"/>
  <path style="stroke-width:1.07228" id="path3" fill="#fbfcfd" d="m 647.42887,255.20317 c 3.03094,0.94337 6.02,1.64164 9.12551,2.3058 7.40184,1.78075 14.25614,4.58051 21.20112,7.59277 2.07184,0.89827 4.14984,1.78163 6.22946,2.66261 9.31734,3.97364 18.4232,8.28811 27.47722,12.80371 0,0.69897 0,1.39794 0,2.11809 0.96147,0.27167 1.92294,0.54335 2.91355,0.82324 3.63052,1.30564 6.03826,2.78508 9.09688,5.06772 4.42114,3.24764 8.90414,6.32957 13.50324,9.33285 5.86289,3.9348 11.09108,8.23498 16.26835,12.98986 3.14085,2.8735 6.40771,5.57185 9.72454,8.249 1.69215,1.66302 1.69215,1.66302 2.73966,3.85559 0.93905,2.17918 0.93905,2.17918 3.04926,2.9827 3.55082,1.73185 5.89866,4.50178 8.52435,7.33473 0.56986,0.60929 1.13973,1.21859 1.72686,1.84635 5.7471,6.22756 10.97042,12.78266 16.05127,19.53316 0.62839,0.82866 1.25677,1.65733 1.9042,2.5111 4.36471,5.91962 8.38432,12.0668 12.4133,18.2065 0.55544,0.8384 1.11087,1.67679 1.68314,2.54058 3.07655,4.73473 5.67548,9.4451 7.91974,14.60456 1.0807,2.44964 2.25227,4.83683 3.45931,7.22949 4.22644,8.42009 8.15205,16.60814 10.72964,25.67361 0.91876,3.17179 1.97947,6.27136 3.09141,9.38302 2.18585,6.13408 3.99635,12.15962 4.98764,18.599 0.41869,2.46447 0.94648,4.84292 1.53099,7.27266 1.3185,5.69827 2.08873,11.4337 2.83296,17.22607 0.13645,1.02116 0.27291,2.04231 0.4135,3.0944 3.60375,27.46001 2.42298,54.01594 -2.10988,81.2984 -0.18019,1.0907 -0.36038,2.18139 -0.54603,3.30513 -0.17809,1.0185 -0.35618,2.03701 -0.53966,3.08639 -0.15675,0.90111 -0.31349,1.80221 -0.47499,2.73062 -0.61603,2.4827 -1.51761,4.46916 -2.78207,6.69738 -15.42753,0.54176 -24.64962,-1.41298 -37.74037,-9.60589 -4.94192,-2.87261 -9.99461,-4.60878 -15.45833,-6.27982 -1.74813,-0.56424 -3.49536,-1.13116 -5.24184,-1.70026 -0.85545,-0.27875 -1.71092,-0.5575 -2.59229,-0.84471 -0.63923,-0.20862 -1.27846,-0.41723 -1.93706,-0.63216 0.0987,-0.60359 0.19733,-1.20716 0.29899,-1.82904 4.31508,-27.27883 6.92218,-58.43525 -2.47036,-85.01282 -0.30897,-1.89198 -0.5796,-3.79025 -0.81427,-5.69238 -1.82332,-11.25965 -6.53988,-22.08914 -12.02315,-32.1065 -1.02263,-1.95863 -1.9345,-3.97214 -2.80751,-5.9985 -2.91679,-6.52231 -6.70427,-12.57029 -10.41158,-18.68639 -0.606,-1.0116 -1.21199,-2.02319 -1.83634,-3.06544 -4.71654,-7.57193 -10.34835,-14.17003 -16.32031,-20.81017 -1.22525,-1.36299 -2.43874,-2.73604 -3.65041,-4.11053 -24.59526,-27.81577 -60.91937,-50.36555 -97.61859,-58.8557 -1.88516,-0.52834 -1.88516,-0.52834 -3.80839,-1.06732 -4.13707,-1.1567 -8.28813,-2.20893 -12.47692,-3.16888 -0.71009,-0.16296 -1.42016,-0.32593 -2.15176,-0.49384 -12.1191,-2.63053 -24.22832,-2.98913 -36.59373,-3.01425 -0.74767,-0.004 -1.49534,-0.007 -2.26567,-0.0115 -11.09271,-0.0303 -21.84637,0.8775 -32.81561,2.46055 -1.04588,0.14889 -2.09175,0.29777 -3.16933,0.45118 -20.97902,3.17182 -39.91137,10.43988 -58.85058,19.60452 -0.72075,0.34061 -1.4415,0.68122 -2.1841,1.03215 -4.38064,2.11985 -8.306,4.50473 -12.23545,7.34171 -2.29416,1.62276 -4.7216,2.99252 -7.1585,4.40089 -7.39459,4.89741 -14.14393,10.22168 -20.6323,16.21666 -2.16714,1.78713 -2.16714,1.78713 -4.33851,1.78713 0,0.69898 0,1.39795 0,2.11811 -2.15249,1.78695 -4.32455,3.55168 -6.51412,5.29523 -0.35828,0.69897 -0.71656,1.39794 -1.08569,2.11809 -0.71656,0 -1.43312,0 -2.17138,0 -0.2799,0.61433 -0.55981,1.22867 -0.84819,1.8616 -1.43587,2.57681 -3.05486,4.35342 -5.12309,6.4784 -16.8408,18.23311 -28.17828,39.99292 -37.45623,62.61615 -0.48003,1.12081 -0.96007,2.24162 -1.45465,3.3964 -2.71164,6.65766 -4.10636,13.47933 -5.31075,20.51825 -0.50828,2.91767 -1.0717,5.80184 -1.68499,8.70224 -2.29392,11.1819 -2.9135,21.96355 -2.83112,33.35429 0.0175,2.86466 5e-5,5.72773 -0.0207,8.59234 -0.0144,12.57763 1.02525,24.68407 4.3454,36.88049 0.72622,3.07457 0.50451,6.14913 0.44265,9.28734 -1.15601,0.15563 -2.31201,0.31126 -3.50304,0.4716 -16.41935,2.39022 -29.05124,7.48217 -42.05769,17.57125 -5.33482,3.97625 -8.52552,4.85629 -15.23779,4.19714 -2.52505,-4.50882 -3.92773,-8.52467 -4.88559,-13.56904 -0.13147,-0.68259 -0.26294,-1.36518 -0.39838,-2.06846 -0.42002,-2.19916 -0.8252,-4.40065 -1.23015,-6.60249 -0.2837,-1.4935 -0.56784,-2.98693 -0.85244,-4.48026 -0.84338,-4.50191 -1.67256,-9.00297 -2.40462,-13.52353 -0.18763,-1.1064 -0.37525,-2.21279 -0.56856,-3.35271 -1.75141,-11.28758 -1.98854,-22.38376 -1.9421,-33.78013 0.002,-1.43523 0.002,-1.43523 0.004,-2.89945 0.0353,-13.58259 0.54919,-26.8363 3.14246,-40.21742 0.44933,-2.35204 0.83314,-4.70662 1.20072,-7.07204 2.84669,-17.85249 8.40769,-34.37539 15.55004,-51.00954 1.12103,-2.64146 2.19765,-5.29779 3.27138,-7.95785 10.93006,-26.70254 27.66398,-50.96289 47.85932,-71.80421 2.21191,-2.24663 2.21191,-2.24663 4.224,-5.36557 0.71655,0 1.43311,0 2.17137,0 0.53742,-1.57268 0.53742,-1.57268 1.08569,-3.17713 0.71656,0 1.43312,0 2.17138,0 0.33589,-0.86007 0.33589,-0.86007 0.67855,-1.73751 2.07567,-3.47426 4.97243,-5.92834 8.00695,-8.5882 0.5934,-0.53652 1.18679,-1.07304 1.79817,-1.62581 4.43524,-3.93415 4.43524,-3.93415 6.88719,-3.93415 0,-0.69897 0,-1.39794 0,-2.11809 2.04212,-1.72855 4.08199,-3.32111 6.2427,-4.8981 0.63722,-0.47141 1.27443,-0.94282 1.93096,-1.42852 5.16825,-3.78564 10.48558,-7.31914 15.9023,-10.75879 2.85382,-1.84045 5.6018,-3.77594 8.35896,-5.75029 6.50388,-4.48194 13.60939,-7.707 20.76377,-11.0538 1.49465,-0.74671 2.98783,-1.4962 4.47846,-2.25048 4.93116,-2.39001 9.99196,-4.45136 15.10261,-6.44684 1.54679,-0.60496 3.09128,-1.21555 4.63432,-1.82955 12.29535,-4.87087 24.29866,-8.83043 37.34225,-11.24254 2.63858,-0.49708 5.26483,-1.03815 7.89245,-1.58755 42.07845,-8.71939 88.21347,-8.25879 129.25302,5.40539 z"/>
  <path style="stroke-width:1.07228" id="path4" fill="#274191" d="m 588.77947,390.70895 c 1.65894,0.53162 3.33544,1.01244 5.02131,1.45618 3.82018,1.05466 7.23689,2.31427 10.78902,4.03762 4.86674,2.16779 9.29624,3.06459 14.58893,1.91952 4.87732,-3.41308 6.65291,-7.38652 8.68551,-12.70856 2.50793,0 5.01587,0 7.59981,0 0,29.0073 0,58.0146 0,87.9009 -2.50794,0 -5.01588,0 -7.59981,0 -0.70572,-3.17624 -1.4061,-6.35346 -2.10353,-9.53142 -0.19803,-0.88874 -0.39607,-1.77747 -0.60009,-2.69313 -1.19043,-5.44716 -2.10073,-10.83304 -2.72483,-16.36972 -0.71655,0 -1.4331,0 -2.17137,0 -0.40307,-1.20134 -0.80613,-2.40271 -1.2214,-3.64048 -2.98362,-7.73375 -9.37593,-19.00244 -17.23529,-22.83569 0,-0.69897 0,-1.39794 0,-2.11809 -0.80053,-0.28669 -1.60105,-0.57339 -2.42583,-0.86876 -2.86624,-1.19259 -5.09085,-2.53283 -7.61678,-4.2941 -13.51233,-8.90299 -27.08007,-10.2104 -43.1561,-9.6638 -0.89568,0.006 -1.79138,0.0137 -2.71421,0.0206 -10.72429,0.50439 -20.55598,7.33029 -27.68503,14.80598 -7.24854,8.9646 -8.47983,18.50863 -7.59982,29.65331 1.36915,10.84688 10.64305,18.74224 18.95712,25.2682 12.86131,9.65864 27.14452,17.81442 41.84139,24.50701 0,0.69897 0,1.39794 0,2.11809 1.57866,0.35837 1.57866,0.35837 3.18921,0.72396 5.19451,1.45373 9.57174,4.06007 14.18179,6.75557 0.90208,0.51996 1.80416,1.03992 2.73358,1.57563 1.83788,1.06101 3.67362,2.12556 5.50715,3.1937 2.3656,1.37329 4.74157,2.7265 7.1243,4.07123 20.00474,11.36246 39.7696,25.95513 47.25286,48.36039 4.5517,17.79023 1.49642,37.88212 -7.24782,53.93278 -4.09897,5.80702 -8.80751,11.09771 -14.11394,15.88571 -0.61998,0.57338 -1.23997,1.14675 -1.87874,1.7375 -18.96797,16.98836 -43.41822,20.59702 -68.33471,19.61408 -6.7635,-0.45662 -13.30542,-1.8462 -19.89862,-3.34778 -1.22319,-0.26621 -2.44636,-0.53242 -3.70661,-0.8067 -5.97262,-1.36616 -11.28382,-3.17719 -16.92145,-5.54758 -11.70642,-3.97445 -11.70642,-3.97445 -23.88514,-4.23619 -5.02537,3.04723 -6.07208,8.48403 -7.59981,13.76761 -2.50794,0 -5.01588,0 -7.59981,0 0,-29.35678 0,-58.71357 0,-88.95995 2.50794,0 5.01588,0 7.59981,0 1.3429,4.43369 2.54629,8.87748 3.6642,13.37047 4.02552,15.71713 4.02552,15.71713 11.53543,30.05046 0.49543,0.76859 0.99086,1.53719 1.5013,2.32908 10.57542,14.85182 28.34453,22.32194 45.86182,26.13281 7.43818,1.29024 14.58717,1.5921 22.12089,1.19143 1.37712,-0.0676 1.37712,-0.0676 2.78207,-0.13652 5.49339,-0.42544 9.62929,-1.77374 14.58893,-4.09967 0.91809,-0.32765 1.83617,-0.65529 2.78208,-0.99286 3.33413,-1.41768 6.14933,-3.38195 9.16049,-5.36142 1.07483,-0.34949 2.14966,-0.69897 3.25706,-1.05905 0,-0.69897 0,-1.39794 0,-2.11809 0.71655,0 1.43311,0 2.17137,0 0.3023,-0.61297 0.6046,-1.22594 0.91606,-1.85747 1.58946,-3.01188 3.46526,-5.79436 5.36058,-8.62957 4.66281,-7.82851 4.96359,-16.71424 3.49455,-25.52056 -3.06026,-9.98563 -8.98486,-18.96583 -17.37099,-25.41713 -0.95588,-0.73719 -1.91175,-1.47439 -2.89659,-2.23393 -4.90751,-3.61837 -9.74709,-6.77596 -15.32685,-9.29147 -3.21009,-1.57946 -6.20856,-3.43 -9.25804,-5.28697 -5.31701,-3.23262 -10.692,-6.24934 -16.21322,-9.13428 -4.37576,-2.3249 -8.65888,-4.7979 -12.95192,-7.26441 -2.55898,-1.45006 -5.13714,-2.8294 -7.74824,-4.18654 -22.31718,-12.01488 -46.9356,-28.73446 -55.26829,-53.35362 -3.73438,-15.90326 -3.87679,-33.71482 3.80415,-48.5631 1.57426,-2.41253 3.28216,-4.60566 5.11885,-6.83416 0.70395,-0.93378 1.40791,-1.86757 2.1332,-2.82964 5.92831,-7.57103 12.56952,-13.06815 20.66624,-18.35129 0.78932,-0.53379 1.57866,-1.06758 2.3919,-1.61753 18.3337,-11.22859 56.03589,-14.75083 74.69192,-2.61866 z"/>
  <path style="stroke-width:1.07228" id="path5" fill="#f9fafc" d="m 758.14676,711.60017 c 0,0.69897 0,1.39794 0,2.1181 -12.36814,11.60374 -42.88955,39.18473 -60.79852,39.18473 0,0.69898 0,1.39795 0,2.1181 -3.34031,1.47547 -5.09199,2.20698 -8.6855,2.11809 -3.19958,-1.75351 -5.88804,-3.85398 -8.74912,-6.09365 -6.80537,-5.06916 -14.21476,-8.7239 -22.73582,-9.79205 0,-0.69897 0,-1.39795 0,-2.1181 -13.5857,0.091 -25.64615,0.26914 -37.99907,6.35429 -1.37893,0.64696 -2.75871,1.29221 -4.13919,1.93607 -6.00755,2.8414 -11.92507,5.84057 -17.80358,8.92743 -0.73632,0.3866 -1.47264,0.77321 -2.23127,1.17152 -1.40079,0.73938 -2.79872,1.48392 -4.19327,2.23445 -8.5754,4.55566 -17.67575,5.29096 -27.19785,2.84903 -7.45155,-2.70084 -14.48976,-6.22007 -21.55524,-9.74887 -16.28553,-8.07369 -32.28246,-12.77076 -50.4055,-7.29517 -3.54879,1.26752 -6.98247,2.70127 -10.38612,4.30238 -2.14364,0.91923 -4.20114,1.48913 -6.48444,1.97744 0,0.69897 0,1.39795 0,2.1181 -2.14593,1.63408 -2.14593,1.63408 -5.02131,3.37571 -0.93208,0.58293 -1.86416,1.16585 -2.82449,1.76645 -3.83225,1.54268 -5.55466,1.26244 -9.52521,0.15306 -2.81528,-1.18538 -5.49439,-2.40407 -8.21051,-3.77285 -1.12876,-0.55929 -1.12876,-0.55929 -2.28032,-1.12989 -8.40026,-4.22783 -16.38796,-9.04658 -24.25117,-14.1601 0,-0.69897 0,-1.39794 0,-2.11809 0.89123,-0.009 1.78245,-0.0198 2.70069,-0.03 3.36557,-0.0472 6.73013,-0.11261 10.0951,-0.18978 2.14895,-0.044 4.29831,-0.0675 6.44759,-0.0904 11.34923,-0.28026 20.74637,-2.23806 30.22326,-8.55924 0.97826,-0.6348 1.95653,-1.26962 2.96443,-1.92366 0.96987,-0.63208 1.93974,-1.26416 2.939,-1.91539 1.93652,-1.18298 3.8814,-2.35306 5.83557,-3.50809 0.83692,-0.49829 1.67383,-0.99659 2.53609,-1.50996 9.33328,-5.01823 20.73763,-6.39361 31.01845,-3.51638 6.54553,2.42474 12.86465,5.32057 19.21582,8.18693 17.2716,7.41041 36.16849,14.33118 54.98838,7.78978 8.97091,-3.79151 17.0068,-8.89366 24.95041,-14.40288 7.54454,-5.10032 14.62209,-6.09694 23.62988,-6.01272 0.8677,-0.008 1.7354,-0.0164 2.6294,-0.0248 9.91236,0.0313 17.57776,1.90548 26.00561,6.97482 11.99027,6.89615 23.42468,11.50504 37.52408,11.51714 0.78304,0.013 1.56607,0.0259 2.37282,0.0393 13.39145,0.0351 25.82964,-5.12142 36.37267,-12.94645 0.71655,0 1.4331,0 2.17137,0 0,-0.69897 0,-1.39794 0,-2.11809 7.19268,-4.23619 7.19268,-4.23619 10.85688,-4.23619 z"/>
  <path style="stroke-width:1.07228" id="path11" fill="#fafbfd" d="m 384.05949,674.53353 c 5.44967,2.10212 10.6868,4.82084 15.88216,7.45884 4.27463,2.15906 8.53949,3.98264 13.06959,5.57085 1.87346,0.67169 3.71187,1.43457 5.54428,2.20652 13.60151,5.45452 27.28734,5.87425 41.02712,0.6495 4.2927,0.38128 6.92538,1.79684 10.38189,4.23619 3.05949,2.15167 5.42769,3.57564 9.16049,4.23618 0,0.69897 0,1.39794 0,2.11809 1.61224,0.52423 1.61224,0.52423 3.25706,1.05906 -33.49341,21.27791 -33.49341,21.27791 -52.11301,19.06284 -4.6112,-1.32085 -8.76472,-3.14869 -13.02825,-5.29523 -0.74314,-0.34949 -1.48629,-0.69897 -2.25195,-1.05905 -1.43473,-0.67855 -2.85205,-1.39213 -4.26218,-2.1181 0,-0.69897 0,-1.39794 0,-2.11809 -0.78933,-0.1215 -1.57866,-0.243 -2.3919,-0.36819 -3.12398,-0.71076 -5.39304,-1.76801 -8.19355,-3.27229 -5.74684,-2.88181 -11.38942,-4.79727 -17.90961,-4.85258 -5.64421,-0.10495 -8.28464,-1.39257 -12.35393,-5.27455 -1.61285,-1.73945 -3.1963,-3.50523 -4.74989,-5.29524 -1.1588,-1.26961 -1.1588,-1.26961 -2.34102,-2.56488 -5.28319,-6.09427 -5.28319,-6.09427 -5.18245,-9.6969 3.57577,-9.08649 18.5128,-6.99519 26.45515,-4.68297 z"/>
  <path style="stroke-width:1.07228" id="path12" fill="#f9fafc" d="m 796.14582,669.2383 c -1.65276,4.9671 -4.42088,8.43516 -7.80337,12.37761 -0.7442,0.92251 -0.7442,0.92251 -1.50343,1.86368 -3.68554,4.31313 -6.57036,5.95485 -12.40694,6.93965 -2.75616,0.1719 -5.51711,0.27967 -8.27838,0.33095 -16.45351,0.68039 -29.3705,8.9461 -42.39694,18.0824 -7.60099,5.14651 -12.80207,6.05531 -22.06577,4.88568 -9.03449,-2.29451 -17.72074,-6.23887 -25.93351,-10.50773 -2.51876,-1.25346 -5.08551,-2.2687 -7.7228,-3.25988 0,-0.69897 0,-1.39794 0,-2.11809 0.69556,-0.32082 1.39112,-0.64164 2.10776,-0.97218 4.50052,-2.12634 8.77548,-4.19317 12.75259,-7.16924 3.51555,-2.56995 6.8479,-3.75147 11.19616,-4.56715 1.07482,0.34949 2.14966,0.69897 3.25705,1.05905 19.75339,0.87585 31.3338,-3.16287 47.75754,-13.73866 18.61184,-11.95454 31.49146,-13.26061 51.04004,-3.20609 z"/>
  <path style="stroke-width:1.07228" id="path17" fill="#2b4594" d="m 308.67204,471.19651 c 3.58278,0 7.16554,0 10.85688,0 0,1.74743 0,3.49486 0,5.29524 0.68944,0.0265 1.37888,0.0531 2.08921,0.0804 3.14893,0.12353 6.29756,0.25316 9.44623,0.38292 1.62694,0.0625 1.62694,0.0625 3.28674,0.12617 5.27342,0.22144 10.38893,0.50088 15.57708,1.52859 0,-1.74742 0,-3.49485 0,-5.29523 3.58277,0 7.16553,0 10.85687,0 0.12464,7.86162 -0.14366,15.48838 -1.08569,23.29903 -3.58276,0 -7.16553,0 -10.85687,0 0,-1.74743 0,-3.49486 0,-5.29524 -1.06644,0.0185 -1.06644,0.0185 -2.15441,0.0373 -7.66419,0.0739 -15.19027,-0.36927 -22.81641,-1.09629 0.56926,0.24556 1.13851,0.49112 1.72502,0.74413 2.59206,1.11885 5.18341,2.23925 7.77475,3.35967 0.8957,0.38635 1.79138,0.7727 2.71422,1.17075 0.86771,0.37542 1.73541,0.75084 2.6294,1.13766 0.79598,0.34385 1.59195,0.6877 2.41205,1.04197 2.23781,0.99633 4.43665,2.04976 6.62969,3.13629 0,2.4464 0,4.8928 0,7.41333 -1.7487,0.42184 -1.7487,0.42184 -3.53273,0.85221 -1.55927,0.37776 -3.11853,0.75561 -4.67778,1.1335 -0.76483,0.1843 -1.52967,0.3686 -2.31769,0.55848 -0.75924,0.18431 -1.51848,0.36861 -2.30073,0.55848 -0.68795,0.16639 -1.3759,0.33277 -2.0847,0.50419 -3.36726,0.86235 -6.70976,1.81448 -10.05719,2.74742 7.8821,0.69897 15.76419,1.39794 23.88513,2.11809 0,-1.39794 0,-2.79588 0,-4.23618 3.58278,0 7.16555,0 10.85689,0 -0.35828,7.68868 -0.71656,15.37736 -1.08569,23.29903 -3.58277,0 -7.16555,0 -10.85689,0 0,-1.74743 0,-3.49485 0,-5.29524 -15.04763,-1.04845 -15.04763,-1.04845 -30.39924,-2.11809 0,1.39794 0,2.79589 0,4.23619 -3.58278,0 -7.16555,0 -10.85689,0 -0.0591,-2.67 -0.10189,-5.33872 -0.1357,-8.00904 -0.0182,-0.74607 -0.0364,-1.49214 -0.0552,-2.26083 -0.0475,-5.0173 0.0793,-9.49802 2.36221,-14.08821 2.96982,-1.6697 6.03902,-2.37644 9.36407,-3.11095 0.87049,-0.21911 1.741,-0.43823 2.63788,-0.66396 2.14429,-0.53538 4.29876,-1.0317 6.45475,-1.52033 -3.90929,-2.37116 -7.52625,-3.99282 -11.94256,-5.29523 0,-0.69897 0,-1.39794 0,-2.11809 -1.79139,-0.34949 -3.58278,-0.69897 -5.42845,-1.05905 -0.0295,-2.69183 -0.0509,-5.38333 -0.0678,-8.07523 -0.0136,-1.13242 -0.0136,-1.13242 -0.0275,-2.28771 -0.0209,-4.43559 0.28353,-8.56525 1.18111,-12.9361 z"/>
  <path style="stroke-width:1.07228" id="path23" fill="#2d4795" d="m 787.46033,481.78699 c 3.22449,0 6.44898,0 9.77118,0 0,1.39794 0,2.79587 0,4.23619 0.94887,0.041 0.94887,0.041 1.91692,0.0827 6.76565,0.45659 12.60254,1.96409 18.96985,4.21965 2.80444,0.92865 5.51331,1.55495 8.4268,2.0519 0.35828,-1.39794 0.71656,-2.79588 1.08569,-4.23618 3.58278,0 7.16554,0 10.85688,0 0.88309,8.22761 1.22423,16.28796 1.15354,24.55665 -0.005,1.1092 -0.01,2.21842 -0.0148,3.36123 -0.0126,2.6966 -0.032,5.39317 -0.053,8.08971 -3.58278,0 -7.16554,0 -10.85688,0 0,-1.39794 0,-2.79588 0,-4.23618 -3.25833,0.98893 -6.51489,1.9833 -9.77118,2.97857 -0.9111,0.27645 -1.82219,0.5529 -2.76088,0.83772 -2.70483,0.82834 -5.40058,1.68105 -8.09601,2.53799 -1.27636,0.38164 -1.27636,0.38164 -2.5785,0.77102 -2.6431,0.805 -2.6431,0.805 -6.107,2.40612 -0.35828,1.39794 -0.71655,2.79589 -1.08569,4.23619 -3.58277,0 -7.16553,0 -10.85687,0 0,-7.3392 0,-14.6784 0,-22.23999 3.58276,0 7.16554,0 10.85687,0 0,1.04846 0,2.09692 0,3.17714 1.79139,-0.34949 3.58278,-0.69897 5.42845,-1.05904 0,-4.54332 0,-9.08663 0,-13.76761 -1.79139,0 -3.58278,0 -5.42845,0 0,1.04845 0,2.09691 0,3.17713 -3.58277,0 -7.16553,0 -10.85687,0 0,-6.9897 0,-13.97941 0,-21.18093 z"/>
  <path style="stroke-width:1.07228" id="path24" fill="#2a4493" d="m 383.5845,335.63851 c 2.84993,2.44904 2.84993,2.44904 5.42843,5.29523 0,1.04846 0,2.09692 0,3.17714 -0.71654,0 -1.4331,0 -2.17137,0 1.72097,3.35748 5.25947,3.95845 8.68551,5.29524 2.2405,0.9016 4.47964,1.80639 6.71768,2.71381 1.09023,0.43821 2.18046,0.87644 3.30372,1.32794 3.00685,1.25348 3.00685,1.25348 5.31817,2.49869 3.27902,1.40897 6.21028,0.45557 9.63124,-0.18616 0,0.69897 0,1.39794 0,2.11809 1.4331,0.69897 2.86622,1.39794 4.34276,2.11809 0,5.22227 -1.14899,5.92441 -4.74989,9.59762 -2.67503,2.75435 -5.03193,5.24458 -7.19269,8.40618 -3.20722,-1.45253 -5.90623,-3.16511 -8.6855,-5.29523 0.71656,-1.74743 1.43312,-3.49485 2.17138,-5.29524 -2.14966,-0.34948 -4.29932,-0.69897 -6.51413,-1.05905 -1.12491,1.31042 -2.22943,2.63751 -3.32492,3.97143 -0.92578,1.1058 -0.92578,1.1058 -1.87026,2.23392 -1.58485,2.18793 -1.58485,2.18793 -0.97543,4.66643 0.36738,0.90922 0.36738,0.90922 0.74218,1.83679 0.5822,-0.28397 1.16439,-0.56791 1.76424,-0.86047 3.20042,-0.24647 3.71643,0.41566 6.107,2.38285 0.98525,0.89555 1.97052,1.79111 2.98563,2.71381 -0.63788,3.25664 -1.57939,5.1671 -3.80415,7.66153 -0.53531,0.60752 -1.07063,1.21502 -1.62217,1.84094 -0.56051,0.62115 -1.12101,1.2423 -1.6985,1.88228 -0.84707,0.95631 -0.84707,0.95631 -1.71123,1.93194 -1.39065,1.56809 -2.79053,3.12838 -4.1922,4.68711 -2.70728,-1.27489 -5.08257,-2.59921 -7.59981,-4.23619 -0.48771,-2.03949 -0.48771,-2.03949 -0.74642,-4.56714 -1.32303,-7.65442 -5.79919,-13.43691 -10.11047,-19.79094 -3.25705,-5.00276 -3.25705,-5.00276 -3.25705,-7.41333 -1.07484,1.04846 -2.14967,2.09691 -3.25707,3.17715 -3.20722,-1.45254 -5.90623,-3.16512 -8.6855,-5.29524 1.33625,-4.77935 3.96508,-7.18314 7.51923,-10.48292 3.56793,-3.52624 6.66724,-7.40949 9.83481,-11.2772 4.86452,-5.7751 4.86452,-5.7751 7.61678,-5.7751 z"/>
  <path style="stroke-width:1.07228" id="path25" fill="#f8f9fc" d="m 398.24128,640.77641 c 0.89289,0.39454 1.78579,0.78907 2.70574,1.19557 2.17724,0.96311 4.35124,1.93259 6.52261,2.90824 0,0.69897 0,1.39794 0,2.11809 1.1483,0.0634 1.1483,0.0634 2.31981,0.12824 4.33773,1.29884 6.55094,4.0987 9.41919,7.35129 1.14514,1.25463 2.29162,2.50811 3.43942,3.76044 0.8342,0.91867 0.8342,0.91867 1.68525,1.85591 2.13676,2.32154 4.35707,4.55134 6.61432,6.76126 0.66337,0.64981 1.32675,1.29964 2.01022,1.96915 1.61898,1.57601 1.61898,1.57601 3.82536,2.53179 0,0.69897 0,1.39794 0,2.11809 1.07482,0 2.14966,0 3.25705,0 0,0.69897 0,1.39795 0,2.1181 -12.9964,0.60369 -21.64127,-4.09553 -32.6088,-10.32157 -17.48743,-9.80859 -36.2896,-11.24384 -55.83233,-6.46597 -2.97198,0.84199 -2.97198,0.84199 -6.0137,3.01992 -1.07482,0 -2.14966,0 -3.25705,0 -1.98054,-2.43663 -1.98054,-2.43663 -4.00347,-5.62617 -0.67598,-1.04437 -1.35195,-2.08873 -2.04839,-3.16474 -1.54796,-2.85859 -1.54796,-2.85859 -1.54796,-6.03574 1.10842,-0.3604 1.10842,-0.3604 2.23923,-0.72809 3.34512,-1.29974 3.34512,-1.29974 6.31056,-3.83904 16.7766,-11.9276 37.15484,-9.66132 54.96294,-1.65477 z"/>
  <path style="stroke-width:1.07228" id="path26" fill="#f7f9fb" d="m 670.20605,764.55252 c -2.99173,3.1445 -5.37679,4.04577 -9.63547,5.22905 -5.58124,1.56843 -5.58124,1.56843 -11.11558,3.28469 -9.09271,2.95278 -18.13906,4.58506 -27.59386,5.91889 -2.66155,0.39097 -5.30767,0.83955 -7.95817,1.29587 -29.39697,4.73846 -60.94961,3.84642 -90.26476,-0.90184 -0.83149,-0.12441 -1.66297,-0.2488 -2.51966,-0.37698 -11.42274,-1.7121 -23.96078,-4.06597 -34.39372,-9.15444 1.46037,-3.42465 2.67808,-4.99186 6.107,-6.61905 10.4372,-4.13145 22.82285,-2.82139 33.11347,1.03836 8.02806,3.45802 15.64431,7.2846 23.0327,11.90188 9.80485,5.94109 25.5444,5.85559 36.72148,3.84731 11.99245,-2.81492 22.51039,-8.02349 32.46142,-15.0666 17.72556,-12.22266 33.53241,-8.50587 52.04515,-0.39714 z"/>
  <path style="stroke-width:1.07228" id="path27" fill="#2b4594" d="m 633.29267,263.62331 c 15.19069,2.68919 30.02156,8.68024 44.5132,13.76762 -0.80649,3.25268 -1.73297,6.45725 -2.71422,9.66379 -0.2799,0.92014 -0.55981,1.84026 -0.8482,2.78828 -0.78034,2.37458 -0.78034,2.37458 -1.86603,4.49267 -8.54978,-0.92667 -8.54978,-0.92667 -9.77118,-2.11809 -0.49356,-2.81138 -0.76262,-5.63613 -1.08569,-8.47237 -1.55854,-0.53546 -3.11974,-1.06358 -4.68203,-1.58858 -0.8691,-0.29488 -1.7382,-0.58976 -2.63364,-0.89357 -2.55072,-0.84255 -2.55072,-0.84255 -5.71258,-0.695 -0.71656,2.09691 -1.43311,4.19383 -2.17138,6.35428 1.54508,0.22935 1.54508,0.22935 3.12135,0.46333 3.39278,0.59572 3.39278,0.59572 5.56416,1.65476 -0.71656,3.14537 -1.43311,6.29075 -2.17138,9.53143 -4.78536,1.16699 -6.3972,0.62173 -10.85687,-1.05904 -0.35828,3.14537 -0.71656,6.29073 -1.08569,9.53142 5.68973,2.43135 5.68973,2.43135 11.73899,3.17714 3.21262,-1.43259 4.11443,-3.31569 5.632,-6.35428 3.39051,0.51447 6.50958,1.05756 9.7712,2.11809 -0.69807,2.78077 -1.39972,5.5606 -2.10352,8.34 -0.19803,0.79043 -0.39607,1.58087 -0.6001,2.39526 -1.51615,5.96955 -1.51615,5.96955 -2.72482,8.32759 -1.79138,0 -3.58277,0 -5.42844,0 0,-0.69897 0,-1.39794 0,-2.11809 -1.34354,0.0983 -1.34354,0.0983 -2.71422,0.19856 -3.73976,-0.19542 -6.44215,-1.08252 -9.90054,-2.39656 -2.87187,-1.08787 -5.76169,-2.11822 -8.65793,-3.14276 -1.04964,-0.37201 -2.09928,-0.74401 -3.18073,-1.12729 -1.06643,-0.37748 -2.13287,-0.75495 -3.23162,-1.14386 -1.65003,-0.58463 -1.65003,-0.58463 -3.3334,-1.18108 -2.68862,-0.95257 -5.3774,-1.90474 -8.06632,-2.85653 0.71656,-3.14537 1.43311,-6.29074 2.17138,-9.53143 2.14966,0.34949 4.29933,0.69897 6.51413,1.05904 0.0896,-0.98292 0.17914,-1.96585 0.27142,-2.97856 0.66934,-4.61703 2.32419,-8.77392 4.01195,-13.11812 1.59287,-4.12614 3.00171,-8.30629 4.40213,-12.49758 -1.43311,-0.34948 -2.86622,-0.69897 -4.34276,-1.05905 0.71656,-3.14536 1.43312,-6.29073 2.17138,-9.53142 z"/>
  <path style="stroke-width:1.07228" id="path28" fill="#f9fafc" d="m 360.55604,589.70635 c 1.02165,0.003 2.0433,0.006 3.09591,0.0106 1.06924,0.008 2.13847,0.0178 3.2401,0.0268 1.07763,0.005 2.15526,0.009 3.26554,0.0145 2.66623,0.0126 5.33232,0.03 7.99847,0.0516 1.97055,4.16877 3.93734,8.33921 5.90343,12.50998 0.5605,1.18566 1.12101,2.37132 1.6985,3.59291 0.53532,1.13651 1.07063,2.27302 1.62217,3.44397 0.49465,1.0482 0.98929,2.09641 1.49892,3.17636 1.21954,2.69365 1.21954,2.69365 2.30523,5.87079 -7.19268,0.13238 -7.19268,0.13238 -10.85687,-1.05904 -19.04625,-1.73779 -32.81478,1.69505 -48.012,12.92781 -3.01532,1.89884 -3.01532,1.89884 -7.35808,1.89884 -6.03187,-12.20196 -6.03187,-12.20196 -6.51413,-18.0038 -0.71655,0 -1.4331,0 -2.17137,0 0,-1.39794 0,-2.79588 0,-4.23618 2.30592,-0.70965 4.61328,-1.41486 6.92126,-2.1181 1.28476,-0.39317 2.56951,-0.78634 3.8932,-1.19142 3.29948,-0.92667 3.29948,-0.92667 5.47085,-0.92667 0,-0.69897 0,-1.39794 0,-2.11809 2.45977,-1.71682 2.45977,-1.71682 5.69986,-3.64048 4.40202,-2.61111 4.40202,-2.61111 8.53284,-5.59723 2.05262,-1.35277 2.05262,-1.35277 6.39537,-1.35277 0,-0.69897 0,-1.39794 0,-2.11809 2.66292,-1.2988 4.39767,-1.17994 7.3708,-1.16247 z"/>
  <path style="stroke-width:1.07228" id="path29" fill="#fafbfd" d="m 771.17501,578.16026 c 10.43495,-0.43315 17.18588,1.59129 25.62392,7.68223 6.3699,4.52357 12.1853,6.49037 19.94104,7.66981 5.86326,0.95078 11.62553,2.36639 17.40492,3.71081 -0.72073,2.14617 -1.4468,4.29072 -2.19258,6.42874 -0.7971,2.32335 -1.55728,4.65879 -2.29859,6.99964 -0.44735,1.34888 -0.89547,2.69751 -1.34439,4.04589 -0.41147,1.2778 -0.82292,2.55562 -1.24685,3.87214 -1.60309,3.01166 -1.60309,3.01166 -4.17735,4.07071 -7.18192,0 -13.28603,-3.77717 -18.86807,-7.87666 -13.22706,-9.2874 -26.88978,-9.9574 -42.61324,-10.12713 0.71836,-4.57641 2.35324,-8.42133 4.27489,-12.64238 2.07188,-4.56346 3.954,-9.07335 5.4963,-13.8338 z"/>
  <path style="stroke-width:1.07228" id="path30" fill="#f8f9fc" d="m 798.3172,630.05356 c 0,0.69897 0,1.39794 0,2.11809 0.61719,0.19249 1.23438,0.38498 1.87027,0.58331 5.30289,1.68396 10.40918,3.55185 15.50074,5.77098 -1.48296,3.75159 -3.15862,7.33525 -5.02131,10.92142 -0.72635,1.40271 -0.72635,1.40271 -1.46738,2.83378 -0.36666,0.70306 -0.73334,1.40614 -1.11113,2.1305 -8.73727,-2.6002 -8.73727,-2.6002 -12.68473,-4.80294 -12.02007,-6.58662 -27.10703,-7.1653 -40.42066,-3.8225 -9.91576,3.44772 -18.69816,9.4257 -27.40514,15.09142 -1.59545,1.02593 -1.59545,1.02593 -3.22313,2.07259 -0.94328,0.62388 -1.88656,1.24777 -2.85842,1.89057 -0.80332,0.40271 -1.60665,0.80544 -2.43431,1.22038 -1.07483,-0.34948 -2.14966,-0.69897 -3.25706,-1.05905 1.18399,-1.08122 1.18399,-1.08122 2.3919,-2.18429 7.84996,-7.32714 14.47626,-15.11562 20.8486,-23.69203 0.7295,-0.97398 0.7295,-0.97398 1.47373,-1.96761 1.1699,-1.57703 2.31048,-3.17466 3.44579,-4.77554 2.83463,-2.94837 5.40628,-3.90122 9.2962,-5.24146 1.83058,-0.6471 1.83058,-0.6471 3.69813,-1.30726 15.05232,-4.82016 27.22712,-1.38743 41.35791,4.21964 z"/>
  <path style="stroke-width:1.07228" id="path32" fill="#2b4594" d="m 767.91794,340.93374 c 3.8726,1.25919 4.65453,2.4861 7.05697,5.62619 0.95727,1.23889 0.95727,1.23889 1.93389,2.50282 0.61578,0.81228 1.23157,1.62457 1.86602,2.46146 1.0853,1.41235 2.17085,2.8245 3.25706,4.23619 -1.50123,3.53895 -3.02954,5.56812 -6.51412,7.41333 -1.79139,-0.34949 -3.58277,-0.69897 -5.42844,-1.05905 -3.94104,5.24228 -7.88209,10.48456 -11.94256,15.8857 4.49486,-1.46152 8.94532,-2.91794 13.36753,-4.56714 1.1378,-0.41092 2.27562,-0.82184 3.44791,-1.2452 2.99068,-1.34097 2.99068,-1.34097 3.49031,-4.27342 0.10639,-0.86552 0.21273,-1.73105 0.32231,-2.6228 4.5775,-4.23619 4.5775,-4.23619 7.59982,-4.23619 1.95802,2.16672 3.76976,4.32936 5.56415,6.61904 0.50802,0.62116 1.01604,1.24232 1.53947,1.88229 2.79872,3.54188 3.75325,4.89777 3.75325,9.50247 -2.30708,2.44904 -2.30708,2.44904 -5.42843,4.23619 -0.90409,-0.22117 -1.80818,-0.44232 -2.73967,-0.67018 -5.6728,-0.58444 -9.98144,1.56115 -15.17418,3.64875 -2.00135,0.78007 -4.00307,1.55921 -6.00521,2.33735 -1.4073,0.55238 -1.4073,0.55238 -2.84304,1.11592 -5.81936,2.23856 -11.68421,3.78919 -17.7511,5.21768 -2.50794,-2.79589 -5.01587,-5.59177 -7.59982,-8.47238 2.56299,-6.73101 6.6392,-12.41481 10.72117,-18.33475 0.96752,-1.41583 1.93446,-2.83203 2.90083,-4.2486 1.51413,-2.21828 3.03804,-4.42737 4.58024,-6.62732 2.78142,-3.95411 2.78142,-3.95411 3.44366,-8.58407 0.0678,-2.44905 0.0678,-2.44905 1.38256,-3.98384 1.7388,-1.50997 1.7388,-1.50997 5.19942,-3.76044 z"/>
  <path style="stroke-width:1.07228" id="path33" fill="#2c4694" d="m 504.09584,266.80045 c 2.17137,5.95714 2.17137,5.95714 2.17137,9.53142 -1.43311,0.34949 -2.86621,0.69898 -4.34275,1.05906 0.36668,1.06073 0.73334,2.12148 1.11113,3.21437 0.48922,1.42168 0.97834,2.8434 1.46738,4.26514 0.24071,0.69556 0.48143,1.39111 0.72945,2.10775 4.6343,13.49528 4.6343,13.49528 4.29185,19.007 0.66757,-0.22935 1.33514,-0.45871 2.02294,-0.695 0.87751,-0.29488 1.755,-0.58976 2.65909,-0.89357 0.8691,-0.29489 1.7382,-0.58976 2.63364,-0.89357 2.45553,-0.69501 2.45553,-0.69501 5.71258,-0.69501 0,-3.49484 0,-6.9897 0,-10.59046 2.86622,-0.69897 5.73243,-1.39794 8.68551,-2.11809 0.20992,0.62661 0.41985,1.25322 0.63614,1.89883 1.7938,5.331 1.7938,5.331 3.91017,10.54497 0.9998,2.70072 0.94501,4.8279 0.88212,7.67809 -1.01464,0.23208 -2.0293,0.46416 -3.0747,0.70326 -9.50743,2.22408 -18.81137,4.82088 -28.08713,7.84203 -0.82878,0.26536 -1.65755,0.53071 -2.51145,0.8041 -0.7309,0.23925 -1.4618,0.4785 -2.21485,0.725 -2.11094,0.51607 -2.11094,0.51607 -6.45369,0.51607 -0.71655,-3.49484 -1.4331,-6.9897 -2.17137,-10.59046 1.61224,-0.52423 1.61224,-0.52423 3.25706,-1.05905 -1.4393,-9.05199 -3.8115,-17.70981 -6.51412,-26.47618 -1.79138,0 -3.58278,0 -5.42845,0 -1.75869,-3.75274 -2.28444,-6.48898 -2.17137,-10.59046 2.57466,-0.89467 5.15305,-1.77489 7.73552,-2.64762 1.08324,-0.37883 1.08324,-0.37883 2.18835,-0.76533 4.44363,-1.48736 8.11084,-2.17187 12.87558,-1.88229 z"/>
  <path style="stroke-width:1.07228" id="path36" fill="#e0e6f2" d="m 813.51683,501.90888 c 2.15125,0.47477 4.29948,0.96259 6.44627,1.45618 1.19659,0.2703 2.39318,0.54061 3.62603,0.81912 0.97546,0.29759 1.95093,0.59521 2.95595,0.90183 0.35828,0.69898 0.71656,1.39795 1.08569,2.1181 -1.73873,0.71279 -3.48105,1.41724 -5.22487,2.11809 -0.96987,0.39317 -1.93973,0.78634 -2.93899,1.19144 -2.69301,0.92666 -2.69301,0.92666 -5.95008,0.92666 0,-3.14537 0,-6.29074 0,-9.53142 z"/>
  <path style="stroke-width:1.07228" id="path37" fill="#3d58a0" d="m 438.95458,361.05563 c 0.71654,0.34949 1.4331,0.69898 2.17136,1.05905 -8.95692,8.73714 -17.91384,17.47428 -27.14219,26.47618 0,-3.75331 0.66216,-4.34494 3.12136,-7.08239 0.5794,-0.65937 1.1588,-1.31875 1.75576,-1.99812 1.63701,-1.50997 1.63701,-1.50997 3.80839,-1.50997 0.35828,-1.04846 0.71654,-2.09691 1.08569,-3.17713 0.71654,0 1.4331,0 2.17137,0 0.71655,-1.39795 1.43311,-2.79589 2.17137,-4.23619 0.71656,0 1.43311,0 2.17138,0 0,-0.69897 0,-1.39794 0,-2.11809 1.89995,-1.82852 1.89995,-1.82852 4.34275,-3.83906 0.80613,-0.66893 1.61224,-1.33786 2.4428,-2.02708 0.94048,-0.76586 0.94048,-0.76586 1.89996,-1.5472 z"/>
  <path style="stroke-width:1.07228" id="path38" fill="#edf0f7" d="m 378.15606,355.7604 c 4.59713,1.38801 8.76593,3.11737 13.02825,5.29523 -2.84993,5.16286 -2.84993,5.16286 -6.51412,6.35428 -1.08857,-1.7413 -2.17361,-3.48471 -3.25707,-5.22904 -0.60459,-0.97064 -1.20918,-1.94129 -1.8321,-2.94134 -1.42496,-2.42008 -1.42496,-2.42008 -1.42496,-3.47913 z"/>
  <path style="stroke-width:1.07228" id="path39" fill="#405ba2" d="m 505.18152,399.18132 c 0.71655,0.34949 1.43311,0.69897 2.17138,1.05904 -5.01589,4.8928 -10.03176,9.7856 -15.19963,14.82667 0,-5.19264 4.01921,-8.06297 7.59981,-11.64952 1.76469,-1.46501 3.55438,-2.90668 5.42844,-4.23619 z"/>
  <path style="stroke-width:1.07228" id="path40" fill="#d5dded" d="m 399.86981,365.29182 c 1.07483,0.34949 2.14967,0.69897 3.25706,1.05904 -3.0972,3.10514 -6.135,5.97637 -9.77118,8.47239 1.65794,-3.63884 3.90768,-6.48044 6.51412,-9.53143 z"/>
</svg>